# xmcd
#
# Track frame offsets:
#	150
#	15697
#	31906
#	53162
#	66529
#	89384
#	104176
#	121667
#	138026
#	173468
#	199099
#	218809
#	236363
#	247128
#	265441
#	281065
#
# Disc length: 4023 seconds
#
# Revision: 1
# Processed by: cddbd v1.5.2PL0 Copyright (c) Steve Scherf et al.
# Submitted via: audiograbber 1.83.01
#
DISCID=e90fb510
DTITLE=Duke Robillard - Stomp! The Blues Tonight
DYEAR=1900
DGENRE=Blues
TTITLE0=Stomp The Blues Tonight
TTITLE1=Do Me Right
TTITLE2=Three Hours Past Midnight
TTITLE3=Baby You Don't Know
TTITLE4=I Wanna Hug You, Kiss You, Squeeze You
TTITLE5=Frankie And Johnny
TTITLE6=Look But Don't Touch
TTITLE7=Playful Baby
TTITLE8=Million Dollar Secret
TTITLE9=Jumpin' The Bone
TTITLE10=Hands Off !
TTITLE11=Money's Gettin' Cheaper
TTITLE12=For You My Love
TTITLE13=Tore Up
TTITLE14=Ain't Nobody's Business
TTITLE15=Early In The Morning
EXTD=
EXTT0=
EXTT1=
EXTT2=
EXTT3=
EXTT4=
EXTT5=
EXTT6=
EXTT7=
EXTT8=
EXTT9=
EXTT10=
EXTT11=
EXTT12=
EXTT13=
EXTT14=
EXTT15=
PLAYORDER=
